<svg id="Facebook" xmlns="http://www.w3.org/2000/svg" xmlns:xlink="http://www.w3.org/1999/xlink" width="11.547" height="21" viewBox="0 0 11.547 21">
  <defs>
    <clipPath id="clip-path">
      <rect width="11.547" height="21" fill="rgba(135,133,134,0.67)"/>
    </clipPath>
  </defs>
  <g transform="translate(0 0)">
    <g clip-path="url(#clip-path)">
      <path d="M287.465,382.8l-2.693,0a4.729,4.729,0,0,0-4.98,5.111v2.357h-2.708a.423.423,0,0,0-.424.423V394.1a.424.424,0,0,0,.424.423h2.708v8.616a.423.423,0,0,0,.423.423h3.533a.423.423,0,0,0,.423-.423v-8.616h3.165a.424.424,0,0,0,.424-.423v-3.415a.423.423,0,0,0-.424-.423h-3.167v-2c0-.96.229-1.448,1.48-1.448h1.813a.424.424,0,0,0,.424-.423v-3.17a.425.425,0,0,0-.423-.424Zm0,0" transform="translate(-276.482 -382.818)" fill="rgba(135,133,134,0.67)"/>
    </g>
  </g>
</svg>
