<svg xmlns="http://www.w3.org/2000/svg" viewBox="0 0 1000 1000"><path d="M500 519.6c-140.5 0-254.8-114.3-254.8-254.8S359.5 10 500 10s254.8 114.3 254.8 254.8S640.5 519.6 500 519.6zm0-470.4c-118.9 0-215.6 96.7-215.6 215.6 0 118.9 96.7 215.6 215.6 215.6 118.9 0 215.6-96.7 215.6-215.6 0-118.9-96.7-215.6-215.6-215.6zM990 990H10v-19.6c0-37.3 0-114.8 35.6-192.6 44.2-96.6 128-162.2 249.1-194.9l8-2.2 7.1 4.2c57.3 34.1 123.1 52.2 190.2 52.2s132.8-18 190.2-52.2l7.1-4.2 8 2.2c121.1 32.7 204.9 98.3 249.1 194.9C990 855.6 990 933.1 990 970.4V990zM49.3 950.8h901.3c-.7-38.2-5.1-98.1-31.9-156.7-38.1-83.4-110.7-141-215.8-171.1-61.7 35-131.6 53.4-202.9 53.4S358.8 657.9 297.1 623C192 653.1 119.4 710.7 81.2 794.1 54.4 852.8 50 912.6 49.3 950.8z"/></svg>